<svg width="81" height="81" viewBox="0 0 81 81" fill="none" xmlns="http://www.w3.org/2000/svg">
<path d="M50.7324 24.6667L40.5001 34.899L30.2678 24.6667L24.6667 30.2678L34.899 40.5001L24.6667 50.7324L30.2678 56.3334L40.5001 46.1011L50.7324 56.3334L56.3334 50.7324L46.1011 40.5001L56.3334 30.2678L50.7324 24.6667ZM40.5001 0.916748C18.6303 0.916748 0.916748 18.6303 0.916748 40.5001C0.916748 62.3699 18.6303 80.0834 40.5001 80.0834C62.3699 80.0834 80.0834 62.3699 80.0834 40.5001C80.0834 18.6303 62.3699 0.916748 40.5001 0.916748ZM40.5001 72.1667C23.0438 72.1667 8.83342 57.9563 8.83342 40.5001C8.83342 23.0438 23.0438 8.83342 40.5001 8.83342C57.9563 8.83342 72.1667 23.0438 72.1667 40.5001C72.1667 57.9563 57.9563 72.1667 40.5001 72.1667Z" fill="black"/>
</svg>
