<?xml version="1.0" encoding="UTF-8"?>
<svg xmlns="http://www.w3.org/2000/svg" version="1.1" xmlns:xlink="http://www.w3.org/1999/xlink" viewBox="0 0 734.2 459.5">
  <defs>
    <style>
      .cls-1 {
        fill: #fff;
      }
    </style>
  </defs>
  <!-- Generator: Adobe Illustrator 28.7.1, SVG Export Plug-In . SVG Version: 1.2.0 Build 142)  -->
  <g>
    <g id="_Слой_1" data-name="Слой_1">
      <g>
        <g id="_Слой_1-2" data-name="_Слой_1">
          <g id="_Слой_1-2">
            <g>
              <path class="cls-1" d="M973,281.9c0,.8-.2,1.5-.3,2.5h-2.8v-2.5h3.1Z"/>
              <path d="M1197.1,403.8c-.7,2-1.7,4-2.3,6.2-2.9,10.9-12.9,18.4-24.3,18-11.2-.4-20.6-8.6-22.8-19.6-.3-1.6-1.4-3-2-4.2.9-2.3,1.8-4.7,2.5-7.1,3.4-11,12.7-17.6,24.6-17.3,10.2.2,19.4,7.9,22.1,18.5.5,1.9,1.4,3.8,2.1,5.6h0ZM1159,404c-1.7,1.3-2.8,2.6-1.8,4.8,2.5,5.9,6.8,9.4,13.2,9.9,6.2.5,11-2.3,14.2-7.6,2.1-3.4,2-4.3-.2-7,.6-1.6,1.7-3.2,1.5-4.4-1.3-5.8-6.6-10.3-12.4-11-6.2-.7-12.1,2.2-15.1,7.5-2,3.6-2,4.3.6,7.6v.2h0Z"/>
              <path d="M951.9,404.1c.8-2.2,1.8-4.1,2.3-6.2,2.8-11.1,12.8-18.5,24.8-18.2,10.7.3,20.4,8.9,22.4,19.6.3,1.6,1.4,3.1,2.2,4.9-2.3,1.3-2.1,4.3-2.9,6.9-3.3,10.5-13.6,17.6-24.5,16.9-11.2-.7-20.2-8.7-22.4-19.6-.3-1.6-1.4-3-2-4.2h0ZM989.9,403.9c1.8-1.5,2.9-2.8,2-5.1-2.2-5.5-7.4-9.7-13.1-10-6.4-.3-12.1,2.9-14.7,8.5-1.6,3.2-1.5,3.6.9,6.2v.5c-1.1,1.2-2.6,2.1-1.8,4.5,2,5.6,7,9.7,13.1,10.3,5.8.6,11.7-2.6,14.4-7.9,1.3-2.4,2.7-4.9-1-7.1h.2Z"/>
              <path d="M1137.4,418.9h4.9v15.5h-8.3v-8.1h-34.6v-17.2c0-2,.2-4-2.4-5.2,3-1.7,2.4-4.3,2.4-6.7v-15.8h8.8v16.6c0,2.1-.3,4.3,2.4,5.7-3,1.8-2.4,4.5-2.4,6.9v8.2h20.4c0-4.2.1-8.3,0-12.4,0-.9-1.2-1.7-1.9-2.8,2.4-1.2,2.1-3.5,2-5.7v-16.4h8.8v12.7c0,1.5-.1,2.9,0,4.4.2,1.8.7,3.6,1.2,5.8-1.8,1-1.2,3.4-1.2,5.6v9h-.1,0Z"/>
              <path d="M951.4,381.3c-7.2,7.5-14,14.5-20.8,21.5,7.6,7.8,15.2,15.5,23.1,23.5h-11.5c-.5,0-1.1-.7-1.5-1.1-5.7-5.8-11.5-11.6-17.2-17.3-.5-.5-1-.9-2-1.8v18.4c0,1.5-.4,2.1-1.9,2-2.2-.2-5.1.6-6.3-.5-1.1-1.1-.6-4-.6-6.2v-10.7c0-1.9.2-3.8-2.3-5.1,2.9-1.6,2.3-4.2,2.3-6.5v-15.9h8.7v18.8c.2,0,.4.2.5.3,2.2-2.3,4.3-4.5,6.5-6.8,3.5-3.8,7-7.6,10.6-11.3.6-.6,1.7-1.1,2.6-1.1h9.7v-.2h.1Z"/>
              <path d="M1053.8,403.8c2.4-1.4,2.4-3.4,2.3-5.4v-17h8.8v17h10.7c4,0,7.9.9,11,3.4,4.6,3.7,5.8,8.6,4.4,14.1-1.4,5.7-5.6,8.8-11.1,9.8-3.9.7-8,.4-11.9.5h-10c-1.4,0-1.9-.5-1.9-1.9v-15.5c0-1.9,0-3.8-2.3-5.2v.2h0ZM1065.2,418.8c4.2,0,8.2.2,12.2,0,3.1-.2,5.1-2.8,5.1-6s-1.6-6.4-4.8-6.7c-4.1-.4-8.3,0-12.5,0v12.9-.2Z"/>
              <path d="M1006.2,426c2.3-6,4.4-11.5,6.5-16.9.7-1.8,1.5-3.5-.6-5.3,4.8-2.2,5.1-7,6.8-10.9,1.4-3.1,2.5-6.3,3.7-9.5.5-1.3,1.1-1.9,2.7-1.9,4.5,0,7.6,2.1,9.2,6.3,1.2,3.1,2.5,6.2,3.5,9.4.9,2.8,2.2,5.2,5.3,6.6-2.3,2-1.1,3.9-.4,5.9,1.9,4.9,3.8,9.7,5.6,14.6.2.5.3.9.5,1.7h-8.2c-.5,0-1.2-.9-1.4-1.6-3.6-9.5-7.2-19-10.8-28.5-.2-.5-.4-1.1-.8-2-.7,1.8-1.4,3.2-1.9,4.7-3.3,8.5-6.5,16.9-9.7,25.4-.6,1.5-1.3,2.2-3,2.1h-7Z"/>
            </g>
          </g>
        </g>
        <g>
          <path d="M888.4,281.9v11.1h5v-5.7h3.9v11h5.3v-5.6h3.8v22.2c-3.7-2.8-5-6.8-5.5-11.2h-.9l-1.6,3.2c-1.6-.8-3.5-1.6-5.1-2.7-.5-.3-.5-1.4-.7-2.1-.4-1.4-.7-2.8-1-4.2h-1c-.4,1.5-.9,3.1-1.4,4.8-1.2-.2-2.6-.2-3.9-.6-.4,0-.9-1-1-1.6v-7c0-2.3-.6-2.7-1.3-4-2.9,3.8-1.1,8.2-2,12.4-1.4.2-2.9.4-4.3.7-.5-1.7-1-3.2-1.5-4.8h-1.1c-.3,1.5-.5,3-1,4.4-.2.7-.6,1.5-1.2,1.9-1.5.9-3.1,1.6-4.6,2.3-.5-1-1.1-2-1.6-3h-.6c-.4,1-1.1,2.1-1,3.1.2,2.1-.8,3.5-2.2,4.9-.9,1-1.7,2.1-2.8,3.5v-22.6h3.7v5.6h5.3v-11h4v3.9c0,1.5.5,2.1,2,2h3.3v-11.3h3.9v2.5h2.8c0-.9.2-1.7.3-2.5h3.9v.4h0Z"/>
          <path d="M857.3,329c.8-2.1,1.7-4.2,2.3-6.5,2.8-10.4,12.9-17.9,23.8-17.6,11.3.3,20.9,8.2,23.1,18.9.4,1.9,1.5,3.6,2.1,5.1-.8,2.2-1.8,4.4-2.4,6.7-2.9,10.3-12.4,17.5-23.4,17.5s-20.3-7.3-23.2-17.6c-.6-2.2-1.5-4.3-2.3-6.5h0ZM895.3,328.9c1.5-1.3,2.7-2.5,1.8-4.8-2.1-5.7-7.3-9.7-13.5-10-6.1-.3-11.7,3-14.3,8.5-1.1,2.3-1.7,4.5.9,6.2v.4c-.6,1.3-2.6,1.8-1.9,4,1.8,5.9,6.8,10.2,12.9,10.9,6.3.7,12.1-2.5,15-8,1.8-3.5,1.8-3.9-.9-7.1h0Z"/>
          <path d="M1177.7,329.3c.9-2.1,1.9-4,2.4-6,2.6-10.6,12.2-18.3,23.4-18.4,10.9,0,20.8,7.5,23.5,18,.6,2.1,1.6,4.2,2.3,6.1-.8,2.2-1.8,4.6-2.5,7.1-3.3,10.8-13.5,17.8-25,17-10.9-.7-20.1-9.1-22-20-.3-1.4-1.4-2.7-2-3.8h0ZM1191.1,328.8c-.8,1.6-2.9,2.3-2,4.6,2.1,5.6,5.8,9.2,11.6,10.3,6,1.1,11.1-.9,14.8-5.7,2.9-3.7,3-5.7.6-9.1,2.4-3.1,2.5-3.2,1-6.2-2.7-5.4-7-8.4-13.1-8.7-6.1-.2-10.7,2.5-13.7,7.7-1.4,2.4-2.7,5,.7,7h.1Z"/>
          <path d="M995.1,351.4h-7.7c-1.6,0-1.2-1.2-1.2-2v-26.2c0-.8,0-1.5-.5-2.4-1.6,2.4-3.3,4.9-4.9,7.3-4.8,7.3-9.6,14.6-14.4,21.8-.4.6-1,1.3-1.5,1.3h-8.5v-16.9c0-2,.1-4-2.2-5.3,2.8-2,2.2-4.7,2.2-7.2v-15.2h8.8v30.1c.2,0,.3,0,.5.2.8-1.1,1.5-2.1,2.3-3.2,5.7-8.6,11.4-17.2,17.1-25.8.5-.7,1.7-1.3,2.6-1.4,2.4-.2,4.8,0,7.5,0v16.7c0,2.1-.5,4.3,2.4,5.7-2.6,1.5-2.4,3.6-2.4,5.8v16.8h-.1Z"/>
          <path d="M1138.6,351.3v-17c0-2,0-3.8-2.3-5.1,3-1.9,2.2-4.7,2.2-7.3v-15h8.8v18.8c.2,0,.3,0,.5.2,1.6-1.6,3.2-3.3,4.7-4.9,4.1-4.3,8.1-8.7,12.2-13,.7-.7,1.8-1.2,2.8-1.2,2.9-.2,5.9,0,9.6,0-7.2,7.4-13.9,14.4-20.5,21.3,7.6,7.6,15.2,15.2,22.7,22.8,0,.3-.2.5-.3.8-1.4,0-2.8-.2-4.1,0-5.2.8-9.2-.9-12.6-5.1-3.9-4.8-8.6-8.9-12.9-13.3-.5-.5-1.1-1-2.1-1.9v20.1h-8.9l.2-.2h0Z"/>
          <path d="M1082.9,306.8v6.9h-21.1c-1.4,0-2,.4-1.9,1.8v9.4h21.8v7.3h-21.7v12h22.9v7.1h-31.8v-16.2c0-2.3.3-4.6-2.4-6.1,2.7-1.5,2.4-3.8,2.4-6.1v-16.2h31.8Z"/>
          <path d="M1268.3,306.7v7h-22.8v11.5h21.5v6.9h-21.6v11.5c0,.3,1.2.9,1.8.9h20.9v6.7h-31.5v-16.6c0-2.1.1-4.1-2.5-5.5,3.1-1.9,2.4-4.7,2.4-7.3v-13.3c0-1,0-1.8,1.4-1.8h30.4Z"/>
          <path d="M1003.9,306.7h8.8v14.3c.2,4.4,2.4,7.1,6.8,7.2,3.1,0,6.1-.7,9.2-1.2,1.5-.2,2-1.2,2-2.8-.1-5.7,0-11.5,0-17.4h8.8v16.5c0,2.1-.3,4.3,2.4,5.7-2.9,1.6-2.4,4.2-2.4,6.5v15.8h-8.8v-17c-4,.5-7.8,1.2-11.6,1.3-9.9,0-15.2-5.4-15.2-15.2v-13.7h0Z"/>
          <path d="M1130.2,343.7c-3.4,4.3-7.8,6.7-12.9,7.8-12.2,2.8-26.4-4.3-28.4-18.8-.2-1.3-1.4-2.4-1.9-3.2.9-2.4,1.8-4.7,2.5-7,2.6-8.3,8-13.8,16.5-15.7,8.9-2,16.9-.4,23.3,6.6.2.3.4.6.7,1.1-1.7,1.6-3.3,3.2-5.1,4.9-.6-.7-1.1-1.2-1.5-1.7-4.4-4.6-9.7-6-15.7-4.2-5.9,1.8-9.1,6.1-10.2,11.9-.2,1.2,1.1,2.6,1.8,4.2-3.8,2.5-1.5,5.7,0,8.6,4.8,8.6,16.3,10,23.3,3.1.7-.7,1.3-1.4,2.2-2.3,1.7,1.6,3.4,3.2,5.2,4.8h.2Z"/>
          <path d="M948.6,306.7c.1.3.2.4.2.4.5,4.5-1.5,6.8-6,6.8h-6.3c-1.2,0-1.7.4-1.6,1.7,0,3.4-.1,6.8,0,10.2,0,1.1.9,2.1,1.6,3.5-2.3,1.6-1.6,4.3-1.6,6.9v15.2h-8.9v-16.3c0-2.2.2-4.4-2.3-6,2.7-1.4,2.3-3.7,2.3-5.9v-9.2h-13.9v-7.3h36.5Z"/>
          <path d="M824.1,306.7h29.8v6c0,.5-1.1,1.1-1.8,1.2h-19.2v12.3c0,.9,1.1,1.8,1.9,2.9-2.6,1.6-1.9,4.2-2,6.7v15.4h-8.8v-16.6c0-2.1.3-4.3-2.2-5.6,2.3-1.3,2.3-3.2,2.2-5.1v-17.2h0Z"/>
          <path d="M1270,297.5c0-6.3,3.7-10.3,9.5-10.4,5.9,0,9.8,4,9.8,10.1s-3.7,10.3-9.5,10.4c-5.8,0-9.8-4-9.8-10.1h0ZM1279.6,288.4c-5.1,0-8.3,3.5-8.3,8.9s3.2,9,8.2,9,8.4-3.6,8.4-9.1-3.3-8.8-8.4-8.8h0Z"/>
          <path d="M1281.8,297.7c.8,2,1.4,3.8,2.1,5.7-1.6.7-2.5,0-2.9-1.4-.3-1-.7-2.1-1.1-3.1-.2-.4-.7-.6-1.1-.8-.2.4-.7.7-.7,1.1v4.3c-.7,0-1.3,0-2.1.2v-13h3.4c1.7,0,3.4.3,4.1,2.2.6,1.9.3,3.6-1.7,4.8h0ZM1278.3,297.2c1.2-.5,2.4-.7,2.8-1.3.4-.7.4-2.1,0-2.8-.4-.6-1.6-.7-2.8-1.1v5.2h0Z"/>
        </g>
        <path d="M235,374.8V53.2h58v36.4h22.3v-36.4h62.5v36.5h22.3v-36.5h57.9v321.5c-.2,0-.4.2-.7.2-32.9,1.2-63.9-5.5-92.7-21.6-6-3.3-11.4-7.6-17.1-11.4-1-.7-1.6-.9-2.7,0-20.9,17.2-44.9,27.5-71.5,31.8-10.9,1.8-21.9,2.8-33,1.8-1.7-.1-3.4-.4-5.3-.6ZM442.6,359.8V68.5h-27.3v36.5h-52.9v-36.5h-31.7c0,6.1,0,12.2,0,18.2s0,12.1,0,18.2h-53v-36.4h-27.2v292c31.6-1.3,60.1-10.5,84.8-30.6-.3-.4-.4-.6-.6-.8-13.7-13.7-27.4-27.4-41-41.1-4.7-4.7-9.6-9.1-13.7-14.3-17-21.4-7.7-53.7,18.2-62.5,16.4-5.6,30.9-1.6,43.1,10.7,1.8,1.8,3.5,3.6,5.5,5.7,2.2-2.3,4.2-4.5,6.3-6.6,6-6,13-9.9,21.4-11.5,16.5-3.1,33,4.2,41.8,18.8,8.6,14.2,7.6,32.8-2.9,45.5-4.5,5.4-9.8,10.2-14.7,15.2-10.2,10.2-20.4,20.4-30.6,30.7-3.4,3.4-7,6.8-10.6,10.4,25.4,19.3,54.3,27.5,85.4,29.7ZM346.4,319.3c.4-.4.7-.5.8-.7,17.5-17.5,35-34.9,52.4-52.5,2-2,3.7-4.6,4.9-7.3,4.8-11,1.1-23.5-8.6-30.3-9.8-6.8-22.8-5.6-31.5,2.8-3.1,3-6.2,6.1-9.3,9.3-2.8,2.8-5.5,5.7-8.3,8.6-.7-.7-1.1-1-1.4-1.3-5.6-5.5-11.1-11.1-16.7-16.6-12.9-12.6-34.5-7.9-40.6,9-3.7,10.4-1.1,19.5,6.6,27.2,12.2,12.1,24.3,24.3,36.5,36.4,5,5,10,10.1,15.2,15.2Z"/>
        <image width="729" height="686" transform="translate(871.1 -219.5) scale(.6)" xlink:href="лого-1.png"/>
      </g>
    </g>
  </g>
</svg>