<svg width="223" height="323" style="width: 100px; height: auto;" viewBox="0 0 223 323" fill="none" xmlns="http://www.w3.org/2000/svg">
<path d="M0 321.8V0.200195H58V36.6002H80.3V0.200195H142.8V36.7002H165.1V0.200195H223V321.7C222.8 321.7 222.6 321.9 222.3 321.9C189.4 323.1 158.4 316.4 129.6 300.3C123.6 297 118.2 292.7 112.5 288.9C111.5 288.2 110.9 288 109.8 288.9C88.9 306.1 64.9 316.4 38.3 320.7C27.4 322.5 16.4 323.5 5.3 322.5C3.6 322.4 1.9 322.1 0 321.9V321.8ZM207.6 306.8V15.5002H180.3V52.0002H127.4V15.5002H95.7C95.7 21.6002 95.7 27.7002 95.7 33.7002C95.7 39.7002 95.7 45.8002 95.7 51.9002H42.7V15.5002H15.5V307.5C47.1 306.2 75.6 297 100.3 276.9C100 276.5 99.9 276.3 99.7 276.1C86 262.4 72.3 248.7 58.7 235C54 230.3 49.1 225.9 45 220.7C28 199.3 37.3 167 63.2 158.2C79.6 152.6 94.1 156.6 106.3 168.9C108.1 170.7 109.8 172.5 111.8 174.6C114 172.3 116 170.1 118.1 168C124.1 162 131.1 158.1 139.5 156.5C156 153.4 172.5 160.7 181.3 175.3C189.9 189.5 188.9 208.1 178.4 220.8C173.9 226.2 168.6 231 163.7 236C153.5 246.2 143.3 256.4 133.1 266.7C129.7 270.1 126.1 273.5 122.5 277.1C147.9 296.4 176.8 304.6 207.9 306.8H207.6ZM111.4 266.3C111.8 265.9 112.1 265.8 112.2 265.6C129.7 248.1 147.2 230.7 164.6 213.1C166.6 211.1 168.3 208.5 169.5 205.8C174.3 194.8 170.6 182.3 160.9 175.5C151.1 168.7 138.1 169.9 129.4 178.3C126.3 181.3 123.2 184.4 120.1 187.6C117.3 190.4 114.6 193.3 111.8 196.2C111.1 195.5 110.7 195.2 110.4 194.9C104.8 189.4 99.3 183.8 93.7 178.3C80.8 165.7 59.2 170.4 53.1 187.3C49.4 197.7 52 206.8 59.7 214.5C71.9 226.6 84 238.8 96.2 250.9C101.2 255.9 106.2 261 111.4 266.1V266.3Z" fill="white"/>
</svg>
